{"accessors" : [{"bufferView" : 0, "byteOffset" : 0, "componentType" : 5123, "count" : 21600, "type" : "SCALAR", "max" : [18477], "min" : [0]}, {"bufferView" : 1, "byteOffset" : 0, "componentType" : 5126, "count" : 18478, "type" : "VEC3", "max" : [-0.013424262404441833, 0.02021092176437378, 0.14826174080371857], "min" : [-0.02193474769592285, -0.0199210774153471, 0.10812974721193314], "name" : "POSITION"}, {"bufferView" : 1, "byteOffset" : 12, "componentType" : 5126, "count" : 18478, "type" : "VEC4", "max" : [0.7068999409675598, 1.0000044107437134, 1.0000044107437134, 0], "min" : [-0.7068659067153931, -1.0000044107437134, -1.0000044107437134, 0], "name" : "TANGENT"}, {"bufferView" : 1, "byteOffset" : 28, "componentType" : 5126, "count" : 18478, "type" : "VEC3", "max" : [1.0000044107437134, 1.0000044107437134, 1.0000044107437134], "min" : [-1.0000044107437134, -1.0000042915344238, -1.0000044107437134], "name" : "NORMAL"}, {"bufferView" : 1, "byteOffset" : 40, "componentType" : 5126, "count" : 18478, "type" : "VEC2", "max" : [1, 1], "min" : [-7.450580596923828E-08, 0], "name" : "TEXCOORD_0"}], "asset" : {"generator" : "Aspose.3D 23.7.0", "version" : "2.0"}, "buffers" : [{"uri" : "data:application/octet-stream;base64,", "byteLength" : 1080008}], "bufferViews" : [{"buffer" : 0, "byteOffset" : 0, "byteLength" : 43200, "target" : 34963}, {"buffer" : 0, "byteOffset" : 43204, "byteLength" : 1036800, "byteStride" : 48, "target" : 34962}], "materials" : [{"name" : "blinn2", "pbrMetallicRoughness" : {"baseColorFactor" : [0, 0, 0, 0.7832168], "metallicFactor" : 0, "roughnessFactor" : 0.3207082}, "emissiveFactor" : [0, 0, 0], "alphaMode" : "BLEND", "doubleSided" : false}], "meshes" : [{"primitives" : [{"attributes" : {"POSITION" : 1, "TANGENT" : 2, "NORMAL" : 3, "TEXCOORD_0" : 4}, "indices" : 0, "material" : 0, "mode" : 4}]}], "nodes" : [{"matrix" : [1, 0, 0, 0, 0, 1, 0, 0, 0, 0, 1, 0, 0.006023902, 0.004197231, -0.1282228, 1], "mesh" : 0, "name" : "pCylinder11"}, {"children" : [0], "matrix" : [3.46559215, 0, 0, 0, 0, 3.46559215, 0, 0, 0, 0, 3.46559215, 0, 0, 0.0644179061, 0, 1], "name" : "group1"}], "scene" : 0, "scenes" : [{"nodes" : [1]}]}